<svg viewBox="0 0 24 24" fill="none" xmlns="http://www.w3.org/2000/svg">
  <path d="M 6.8475 5.1525 C 6.3788 4.6838 5.6175 4.6838 5.1488 5.1525 C 4.68 5.6213 4.68 6.3825 5.1488 6.8513 L 10.3013 12 L 5.1525 17.1525 C 4.6838 17.6212 4.6838 18.3825 5.1525 18.8513 C 5.6213 19.32 6.3825 19.32 6.8513 18.8513 L 12 13.6988 L 17.1525 18.8475 C 17.6213 19.3163 18.3825 19.3163 18.8513 18.8475 C 19.32 18.3788 19.32 17.6175 18.8513 17.1488 L 13.6988 12 L 18.8475 6.8475 C 19.3163 6.3788 19.3163 5.6175 18.8475 5.1488 C 18.3788 4.68 17.6175 4.68 17.1488 5.1488 L 12 10.3013 L 6.8475 5.1525 Z" fill="var(--fill-0, black)"/>
</svg>
