<svg viewBox="0 0 24 24" fill="none" xmlns="http://www.w3.org/2000/svg">
  <svg x="4.68" y="4.68" width="14.64" height="14.64" viewBox="4.68 4.68 14.64 14.64">
    <path d="M6.84751 5.1525C6.37876 4.68375 5.61751 4.68375 5.14876 5.1525C4.68001 5.62125 4.68001 6.3825 5.14876 6.85125L10.3013 12L5.15251 17.1525C4.68376 17.6212 4.68376 18.3825 5.15251 18.8513C5.62126 19.32 6.38251 19.32 6.85126 18.8513L12 13.6988L17.1525 18.8475C17.6213 19.3163 18.3825 19.3163 18.8513 18.8475C19.32 18.3788 19.32 17.6175 18.8513 17.1488L13.6988 12L18.8475 6.8475C19.3163 6.37875 19.3163 5.6175 18.8475 5.14875C18.3788 4.68 17.6175 4.68 17.1488 5.14875L12 10.3013L6.84751 5.1525Z" fill="var(--fill-0, black)"/>
  </svg>
</svg>
