<svg viewBox="0 0 24 24" fill="none" xmlns="http://www.w3.org/2000/svg">
  <path d="M 12.8475 19.4494 C 12.3788 19.9182 11.6175 19.9182 11.1488 19.4494 L 5.1488 13.4494 C 4.68 12.9807 4.68 12.2194 5.1488 11.7507 C 5.6175 11.2819 6.3788 11.2819 6.8475 11.7507 L 12 16.9032 L 17.1525 11.7544 C 17.6213 11.2857 18.3825 11.2857 18.8513 11.7544 C 19.32 12.2232 19.32 12.9844 18.8513 13.4532 L 12.8513 19.4532 L 12.8475 19.4494 Z" fill="var(--fill-0, black)"/>
  <path d="M 18.8475 6.2494 L 12.8475 12.2494 C 12.3788 12.7182 11.6175 12.7182 11.1488 12.2494 L 5.1488 6.2494 C 4.68 5.7807 4.68 5.0194 5.1488 4.5507 C 5.6175 4.0819 6.3788 4.0819 6.8475 4.5507 L 12 9.7032 L 17.1525 4.5544 C 17.6213 4.0857 18.3825 4.0857 18.8513 4.5544 C 19.32 5.0232 19.32 5.7844 18.8513 6.2532 L 18.8475 6.2494 Z" fill="var(--fill-0, black)"/>
</svg>
