<svg viewBox="0 0 24 24" fill="none" xmlns="http://www.w3.org/2000/svg">
  <svg x="4.68" y="4.0819" width="14.64" height="15.8363" viewBox="-0.1172 -0.1172 14.64 15.8363">
    <path d="M8.05031 15.2503C7.58156 15.7191 6.82031 15.7191 6.35156 15.2503L0.351563 9.25031C-0.117188 8.78156 -0.117188 8.02031 0.351563 7.55156C0.820313 7.08281 1.58156 7.08281 2.05031 7.55156L7.20281 12.7041L12.3553 7.55531C12.8241 7.08656 13.5853 7.08656 14.0541 7.55531C14.5228 8.02406 14.5228 8.78531 14.0541 9.25406L8.05406 15.2541L8.05031 15.2503Z" fill="var(--fill-0, black)"/>
    <path d="M14.0503 2.05031L8.05031 8.05031C7.58156 8.51906 6.82031 8.51906 6.35156 8.05031L0.351563 2.05031C-0.117188 1.58156 -0.117188 0.820313 0.351563 0.351563C0.820313 -0.117188 1.58156 -0.117188 2.05031 0.351563L7.20281 5.50406L12.3553 0.355312C12.8241 -0.113438 13.5853 -0.113438 14.0541 0.355312C14.5228 0.824062 14.5228 1.58531 14.0541 2.05406L14.0503 2.05031Z" fill="var(--fill-0, black)"/>
  </svg>
</svg>
