<svg viewBox="0 0 24 24" fill="none" xmlns="http://www.w3.org/2000/svg">
  <path d="M 15.199 18.3998 C 14.5352 18.3998 13.999 18.9361 13.999 19.5998 C 13.999 20.2636 14.5352 20.7998 15.199 20.7998 L 17.599 20.7998 C 19.5865 20.7998 21.199 19.1873 21.199 17.1998 L 21.199 7.5998 C 21.199 5.6123 19.5865 3.9998 17.599 3.9998 L 15.199 3.9998 C 14.5352 3.9998 13.999 4.5361 13.999 5.1998 C 13.999 5.8636 14.5352 6.3998 15.199 6.3998 L 17.599 6.3998 C 18.2627 6.3998 18.799 6.9361 18.799 7.5998 L 18.799 17.1998 C 18.799 17.8636 18.2627 18.3998 17.599 18.3998 L 15.199 18.3998 Z" fill="var(--fill-0, black)"/>
  <path d="M 2.3515 11.5523 C 1.8827 12.0211 1.8827 12.7823 2.3515 13.2511 L 7.1515 18.0511 C 7.6202 18.5198 8.3815 18.5198 8.8502 18.0511 C 9.319 17.5823 9.319 16.8211 8.8502 16.3523 L 6.0977 13.5998 L 13.999 13.5998 C 14.6627 13.5998 15.199 13.0636 15.199 12.3998 C 15.199 11.7361 14.6627 11.1998 13.999 11.1998 L 6.0977 11.1998 L 8.8502 8.4473 C 9.319 7.9786 9.319 7.2173 8.8502 6.7486 C 8.3815 6.2798 7.6202 6.2798 7.1515 6.7486 L 2.3515 11.5486 L 2.3515 11.5523 Z" fill="var(--fill-0, black)"/>
</svg>
