<svg viewBox="0 0 24 24" fill="none" xmlns="http://www.w3.org/2000/svg">
  <svg x="4.68" y="4.0819" width="14.64" height="15.8363" viewBox="-0.1172 -0.1172 14.64 15.8363">
    <path d="M8.05031 0.351563C7.58156 -0.117188 6.82031 -0.117188 6.35156 0.351563L0.351563 6.35156C-0.117188 6.82031 -0.117188 7.58156 0.351563 8.05031C0.820313 8.51906 1.58156 8.51906 2.05031 8.05031L7.20281 2.89781L12.3553 8.04656C12.8241 8.51531 13.5853 8.51531 14.0541 8.04656C14.5228 7.57781 14.5228 6.81656 14.0541 6.34781L8.05406 0.347813L8.05031 0.351563Z" fill="var(--fill-0, black)"/>
    <path d="M14.0503 13.5516L8.05031 7.55156C7.58156 7.08281 6.82031 7.08281 6.35156 7.55156L0.351563 13.5516C-0.117188 14.0203 -0.117188 14.7816 0.351563 15.2503C0.820313 15.7191 1.58156 15.7191 2.05031 15.2503L7.20281 10.0978L12.3553 15.2466C12.8241 15.7153 13.5853 15.7153 14.0541 15.2466C14.5228 14.7778 14.5228 14.0166 14.0541 13.5478L14.0503 13.5516Z" fill="var(--fill-0, black)"/>
  </svg>
</svg>
