<svg viewBox="0 0 24 24" fill="none" xmlns="http://www.w3.org/2000/svg">
  <path d="M 12.8475 4.5507 C 12.3788 4.0819 11.6175 4.0819 11.1488 4.5507 L 5.1488 10.5507 C 4.68 11.0194 4.68 11.7807 5.1488 12.2494 C 5.6175 12.7182 6.3788 12.7182 6.8475 12.2494 L 12 7.0969 L 17.1525 12.2457 C 17.6213 12.7144 18.3825 12.7144 18.8513 12.2457 C 19.32 11.7769 19.32 11.0157 18.8513 10.5469 L 12.8513 4.5469 L 12.8475 4.5507 Z" fill="var(--fill-0, black)"/>
  <path d="M 18.8475 17.7507 L 12.8475 11.7507 C 12.3788 11.2819 11.6175 11.2819 11.1488 11.7507 L 5.1488 17.7507 C 4.68 18.2194 4.68 18.9807 5.1488 19.4494 C 5.6175 19.9182 6.3788 19.9182 6.8475 19.4494 L 12 14.2969 L 17.1525 19.4457 C 17.6213 19.9144 18.3825 19.9144 18.8513 19.4457 C 19.32 18.9769 19.32 18.2157 18.8513 17.7469 L 18.8475 17.7507 Z" fill="var(--fill-0, black)"/>
</svg>
