<svg viewBox="0 0 24 24" fill="none" xmlns="http://www.w3.org/2000/svg">
  <path d="M 5.4 3.3 C 5.4 2.8013 4.9988 2.4 4.5 2.4 C 4.0013 2.4 3.6 2.8013 3.6 3.3 V 20.7 C 3.6 21.1988 4.0013 21.6 4.5 21.6 C 4.9988 21.6 5.4 21.1988 5.4 20.7 V 16.95 L 8.4113 16.1963 C 9.9525 15.81 11.5838 15.99 13.005 16.6988 C 14.6625 17.5275 16.5862 17.6288 18.3187 16.9763 L 19.62 16.4888 C 20.0887 16.3125 20.4 15.8663 20.4 15.3638 V 4.875 C 20.4 4.0125 19.4925 3.45 18.72 3.8363 L 18.36 4.0162 C 16.6237 4.8863 14.58 4.8863 12.8438 4.0162 C 11.5275 3.3563 10.0163 3.1913 8.5875 3.5475 L 5.4 4.35 V 3.3 Z M 5.4 6.2063 L 9.0225 5.2988 C 10.035 5.0475 11.1038 5.1638 12.0375 5.6288 C 14.0962 6.6563 16.4887 6.7425 18.6 5.8838 V 14.9513 L 17.685 15.2925 C 16.4212 15.765 15.015 15.6938 13.8075 15.09 C 12 14.1863 9.9338 13.9613 7.9725 14.4488 L 5.4 15.0938 V 6.2063 Z" fill-rule="evenodd" fill="var(--fill-0, black)"/>
</svg>
