<svg viewBox="0 0 24 24" fill="none" xmlns="http://www.w3.org/2000/svg">
  <path d="M 9.0056 0.2306 C 9.3468 -0.0769 9.8643 -0.0769 10.2056 0.2306 L 18.9056 8.0306 C 19.2768 8.3606 19.3068 8.9306 18.9731 9.3019 C 18.6393 9.6731 18.0731 9.7031 17.7018 9.3694 L 17.4018 9.0994 V 16.7981 C 17.4018 18.1219 16.3256 19.1981 15.0018 19.1981 H 4.2018 C 2.8781 19.1981 1.8018 18.1219 1.8018 16.7981 V 9.0994 L 1.5018 9.3694 C 1.1306 9.6994 0.5643 9.6694 0.2306 9.3019 C -0.1032 8.9344 -0.0694 8.3644 0.2981 8.0306 L 9.0056 0.2306 Z M 9.6056 2.1094 L 3.6056 7.4906 V 16.8019 C 3.6056 17.1319 3.8756 17.4019 4.2056 17.4019 H 6.0056 V 13.5019 C 6.0056 12.0094 7.2131 10.8019 8.7056 10.8019 H 10.5056 C 11.9981 10.8019 13.2056 12.0094 13.2056 13.5019 V 17.4019 H 15.0056 C 15.3356 17.4019 15.6056 17.1319 15.6056 16.8019 V 7.4906 L 9.6056 2.1131 V 2.1094 Z M 7.8056 17.4019 H 11.4056 V 13.5019 C 11.4056 13.0031 11.0043 12.6019 10.5056 12.6019 H 8.7056 C 8.2068 12.6019 7.8056 13.0031 7.8056 13.5019 V 17.4019 Z" fill-rule="evenodd" fill="var(--fill-0, black)"/>
</svg>
