<svg viewBox="0 0 24 24" fill="none" xmlns="http://www.w3.org/2000/svg">
  <svg x="3.6" y="4.8" width="16.8" height="14.4" viewBox="0 0 16.8 14.4">
    <path d="M0 1.2C0 0.53625 0.53625 0 1.2 0H15.6C16.2637 0 16.8 0.53625 16.8 1.2C16.8 1.86375 16.2637 2.4 15.6 2.4H1.2C0.53625 2.4 0 1.86375 0 1.2Z" fill="var(--fill-0, black)"/>
    <path d="M0 7.2C0 6.53625 0.53625 6 1.2 6H15.6C16.2637 6 16.8 6.53625 16.8 7.2C16.8 7.86375 16.2637 8.4 15.6 8.4H1.2C0.53625 8.4 0 7.86375 0 7.2Z" fill="var(--fill-0, black)"/>
    <path d="M16.8 13.2C16.8 13.8637 16.2637 14.4 15.6 14.4H1.2C0.53625 14.4 0 13.8637 0 13.2C0 12.5362 0.53625 12 1.2 12H15.6C16.2637 12 16.8 12.5362 16.8 13.2Z" fill="var(--fill-0, black)"/>
  </svg>
</svg>
