<svg viewBox="0 0 24 24" fill="none" xmlns="http://www.w3.org/2000/svg">
  <path d="M 3.6 6 C 3.6 5.3363 4.1363 4.8 4.8 4.8 H 19.2 C 19.8637 4.8 20.4 5.3363 20.4 6 C 20.4 6.6638 19.8637 7.2 19.2 7.2 H 4.8 C 4.1363 7.2 3.6 6.6638 3.6 6 Z" fill="var(--fill-0, black)"/>
  <path d="M 3.6 12 C 3.6 11.3363 4.1363 10.8 4.8 10.8 H 19.2 C 19.8637 10.8 20.4 11.3363 20.4 12 C 20.4 12.6638 19.8637 13.2 19.2 13.2 H 4.8 C 4.1363 13.2 3.6 12.6638 3.6 12 Z" fill="var(--fill-0, black)"/>
  <path d="M 20.4 18 C 20.4 18.6637 19.8637 19.2 19.2 19.2 H 4.8 C 4.1363 19.2 3.6 18.6637 3.6 18 C 3.6 17.3362 4.1363 16.8 4.8 16.8 H 19.2 C 19.8637 16.8 20.4 17.3362 20.4 18 Z" fill="var(--fill-0, black)"/>
</svg>
