<svg viewBox="0 0 24 24" fill="none" xmlns="http://www.w3.org/2000/svg">
  <svg x="4.8" y="2.4" width="14.4" height="19.2" viewBox="0 0 14.4 19.2">
    <path d="M1.8 6.9C1.8 6.40125 1.39875 6 0.9 6C0.40125 6 0 6.40125 0 6.9V8.4C0 12.0713 2.74875 15.1013 6.3 15.5438V17.4H4.5C4.00125 17.4 3.6 17.8013 3.6 18.3C3.6 18.7988 4.00125 19.2 4.5 19.2H9.9C10.3987 19.2 10.8 18.7988 10.8 18.3C10.8 17.8013 10.3987 17.4 9.9 17.4H8.1V15.5438C11.6512 15.1013 14.4 12.0713 14.4 8.4V6.9C14.4 6.40125 13.9987 6 13.5 6C13.0012 6 12.6 6.40125 12.6 6.9V8.4C12.6 11.3813 10.1812 13.8 7.2 13.8C4.21875 13.8 1.8 11.3813 1.8 8.4V6.9Z" fill="var(--fill-0, black)"/>
    <path d="M7.2 0C5.2125 0 3.6 1.6125 3.6 3.6V8.4C3.6 10.3875 5.2125 12 7.2 12C9.1875 12 10.8 10.3875 10.8 8.4V3.6C10.8 1.6125 9.1875 0 7.2 0 Z" fill="var(--fill-0, black)"/>
  </svg>
</svg>
