<svg viewBox="0 0 24 24" fill="none" xmlns="http://www.w3.org/2000/svg">
  <path d="M 6.6 9.3 C 6.6 8.8013 6.1987 8.4 5.7 8.4 C 5.2013 8.4 4.8 8.8013 4.8 9.3 V 10.8 C 4.8 14.4713 7.5488 17.5013 11.1 17.9438 V 19.8 H 9.3 C 8.8013 19.8 8.4 20.2013 8.4 20.7 C 8.4 21.1988 8.8013 21.6 9.3 21.6 H 14.7 C 15.1987 21.6 15.6 21.1988 15.6 20.7 C 15.6 20.2013 15.1987 19.8 14.7 19.8 H 12.9 V 17.9438 C 16.4512 17.5013 19.2 14.4713 19.2 10.8 V 9.3 C 19.2 8.8013 18.7987 8.4 18.3 8.4 C 17.8012 8.4 17.4 8.8013 17.4 9.3 V 10.8 C 17.4 13.7813 14.9812 16.2 12 16.2 C 9.0188 16.2 6.6 13.7813 6.6 10.8 V 9.3 Z" fill="var(--fill-0, black)"/>
  <path d="M 12 2.4 C 10.0125 2.4 8.4 4.0125 8.4 6 V 10.8 C 8.4 12.7875 10.0125 14.4 12 14.4 C 13.9875 14.4 15.6 12.7875 15.6 10.8 V 6 C 15.6 4.0125 13.9875 2.4 12 2.4 Z" fill="var(--fill-0, black)"/>
</svg>
