<svg viewBox="0 0 24 24" fill="none" xmlns="http://www.w3.org/2000/svg">
  <path d="M 3.6 12 C 3.6 10.8413 4.5413 9.9 5.7 9.9 C 6.8588 9.9 7.8 10.8413 7.8 12 C 7.8 13.1588 6.8588 14.1 5.7 14.1 C 4.5413 14.1 3.6 13.1588 3.6 12 Z" fill="var(--fill-0, black)"/>
  <path d="M 9.9 12 C 9.9 10.8413 10.8413 9.9 12 9.9 C 13.1588 9.9 14.1 10.8413 14.1 12 C 14.1 13.1588 13.1588 14.1 12 14.1 C 10.8413 14.1 9.9 13.1588 9.9 12 Z" fill="var(--fill-0, black)"/>
  <path d="M 18.3 9.9 C 19.4587 9.9 20.4 10.8413 20.4 12 C 20.4 13.1588 19.4587 14.1 18.3 14.1 C 17.1412 14.1 16.2 13.1588 16.2 12 C 16.2 10.8413 17.1412 9.9 18.3 9.9 Z" fill="var(--fill-0, black)"/>
</svg>
