<svg viewBox="0 0 24 24" fill="none" xmlns="http://www.w3.org/2000/svg">
  <svg x="3.6" y="9.9" width="16.8" height="4.2" viewBox="0 0 16.8 4.2">
    <path d="M0 2.1C0 0.94125 0.94125 0 2.1 0C3.25875 0 4.2 0.94125 4.2 2.1C4.2 3.25875 3.25875 4.2 2.1 4.2C0.94125 4.2 0 3.25875 0 2.1Z" fill="var(--fill-0, black)"/>
    <path d="M6.3 2.1C6.3 0.94125 7.24125 0 8.4 0C9.55875 0 10.5 0.94125 10.5 2.1C10.5 3.25875 9.55875 4.2 8.4 4.2C7.24125 4.2 6.3 3.25875 6.3 2.1Z" fill="var(--fill-0, black)"/>
    <path d="M14.7 0C15.8587 0 16.8 0.94125 16.8 2.1C16.8 3.25875 15.8587 4.2 14.7 4.2C13.5412 4.2 12.6 3.25875 12.6 2.1C12.6 0.94125 13.5412 0 14.7 0Z" fill="var(--fill-0, black)"/>
  </svg>
</svg>
