<svg viewBox="0 0 24 24" fill="none" xmlns="http://www.w3.org/2000/svg">
  <path d="M 13.2 13.065 C 15.6038 12.5213 17.4 10.3688 17.4 7.8 C 17.4 4.8188 14.9813 2.4 12 2.4 C 9.0188 2.4 6.6 4.8188 6.6 7.8 C 6.6 10.3688 8.3963 12.5213 10.8 13.065 V 20.4 C 10.8 21.0638 11.3363 21.6 12 21.6 C 12.6638 21.6 13.2 21.0638 13.2 20.4 V 13.065 Z M 12.3 6 C 11.1413 6 10.2 6.9413 10.2 8.1 C 10.2 8.5988 9.7988 9 9.3 9 C 8.8013 9 8.4 8.5988 8.4 8.1 C 8.4 5.9475 10.1475 4.2 12.3 4.2 C 12.7988 4.2 13.2 4.6013 13.2 5.1 C 13.2 5.5988 12.7988 6 12.3 6 Z" fill-rule="evenodd" fill="var(--fill-0, black)"/>
</svg>
