<svg viewBox="0 0 24 24" fill="none" xmlns="http://www.w3.org/2000/svg">
  <svg x="6.8" y="2.056" width="10.8" height="19.2" viewBox="0 0 11 20">
    <path d="M6.6 10.665C9.00375 10.1213 10.8 7.96875 10.8 5.4C10.8 2.41875 8.38125 0 5.4 0C2.41875 0 0 2.41875 0 5.4C0 7.96875 1.79625 10.1213 4.2 10.665V18C4.2 18.6638 4.73625 19.2 5.4 19.2C6.06375 19.2 6.6 18.6638 6.6 18V10.665ZM5.7 3.6C4.54125 3.6 3.6 4.54125 3.6 5.7C3.6 6.19875 3.19875 6.6 2.7 6.6C2.20125 6.6 1.8 6.19875 1.8 5.7C1.8 3.5475 3.5475 1.8 5.7 1.8C6.19875 1.8 6.6 2.20125 6.6 2.7C6.6 3.19875 6.19875 3.6 5.7 3.6Z" fill-rule="evenodd" fill="var(--fill-0, black)"/>
  </svg>
</svg>
