<svg viewBox="0 0 24 24" fill="none" xmlns="http://www.w3.org/2000/svg">
  <svg x="3.6" y="3.6" width="16.8" height="16.8" viewBox="3.6 3.6 16.8 16.8">
    <path d="M13.2 4.8C13.2 4.13625 12.6637 3.6 12 3.6C11.3362 3.6 10.8 4.13625 10.8 4.8V10.8H4.8C4.13625 10.8 3.6 11.3362 3.6 12C3.6 12.6637 4.13625 13.2 4.8 13.2H10.8V19.2C10.8 19.8637 11.3362 20.4 12 20.4C12.6637 20.4 13.2 19.8637 13.2 19.2V13.2H19.2C19.8637 13.2 20.4 12.6637 20.4 12C20.4 11.3362 19.8637 10.8 19.2 10.8H13.2V4.8Z" fill="var(--fill-0, black)"/>
  </svg>
</svg>
