<svg viewBox="0 0 24 24" fill="none" xmlns="http://www.w3.org/2000/svg">
  <path d="M 9.2173 2.9375 C 9.3292 2.3934 9.8176 2 10.3842 2 H 12.6137 C 13.1803 2 13.6687 2.3934 13.7806 2.9375 L 14.3212 5.511 C 14.8468 5.7316 15.3389 6.0147 15.7863 6.3493 L 18.314 5.5221 C 18.8509 5.3456 19.4399 5.5662 19.7233 6.0515 L 20.838 7.9559 C 21.1213 8.4412 21.0207 9.0515 20.5956 9.4228 L 18.6085 11.1654 C 18.6421 11.4375 18.657 11.7169 18.657 12 C 18.657 12.2831 18.6384 12.5625 18.6085 12.8346 L 20.5994 14.5809 C 21.0244 14.9522 21.1213 15.5662 20.8417 16.0478 L 19.727 17.9522 C 19.4436 18.4338 18.8546 18.6581 18.3177 18.4816 L 15.7901 17.6544 C 15.3389 17.989 14.8468 18.2684 14.3249 18.4926 L 13.788 21.0625 C 13.6725 21.6103 13.1841 22 12.6211 22 H 10.3917 C 9.825 22 9.3366 21.6066 9.2248 21.0625 L 8.6879 18.4926 C 8.1623 18.2721 7.6739 17.989 7.2228 17.6544 L 4.6839 18.4816 C 4.147 18.6581 3.558 18.4375 3.2747 17.9522 L 2.1599 16.0478 C 1.8766 15.5625 1.9773 14.9522 2.4023 14.5809 L 4.3931 12.8346 C 4.3595 12.5625 4.3446 12.2831 4.3446 12 C 4.3446 11.7169 4.3633 11.4375 4.3931 11.1654 L 2.4023 9.4191 C 1.9773 9.0478 1.8803 8.4338 2.1599 7.9522 L 3.2747 6.0478 C 3.558 5.5625 4.147 5.3419 4.6839 5.5184 L 7.2116 6.3456 C 7.6627 6.011 8.1548 5.7316 8.6767 5.5074 L 9.2173 2.9375 Z M 11.499 14.9412 C 13.1468 14.9338 14.4777 13.614 14.4703 11.989 C 14.4628 10.364 13.1244 9.0515 11.4766 9.0588 C 9.8287 9.0662 8.4978 10.386 8.5053 12.011 C 8.5127 13.636 9.8511 14.9485 11.499 14.9412 Z" fill-rule="evenodd" fill="var(--fill-0, black)"/>
</svg>
