<svg viewBox="0 0 24 24" fill="none" xmlns="http://www.w3.org/2000/svg">
  <path d="M 16.8 7.2 C 16.8 4.5488 14.6512 2.4 12 2.4 C 9.3488 2.4 7.2 4.5488 7.2 7.2 C 7.2 9.8513 9.3488 12 12 12 C 14.6512 12 16.8 9.8513 16.8 7.2 Z M 9 7.2 C 9 5.5425 10.3425 4.2 12 4.2 C 13.6575 4.2 15 5.5425 15 7.2 C 15 8.8575 13.6575 10.2 12 10.2 C 10.3425 10.2 9 8.8575 9 7.2 Z" fill-rule="evenodd" fill="var(--fill-0, black)"/>
  <path d="M 5.4 20.4 C 5.4 17.7488 7.5488 15.6 10.2 15.6 H 13.8 C 16.4512 15.6 18.6 17.7488 18.6 20.4 V 20.7 C 18.6 21.1988 19.0012 21.6 19.5 21.6 C 19.9987 21.6 20.4 21.1988 20.4 20.7 V 20.4 C 20.4 16.755 17.445 13.8 13.8 13.8 H 10.2 C 6.555 13.8 3.6 16.755 3.6 20.4 V 20.7 C 3.6 21.1988 4.0013 21.6 4.5 21.6 C 4.9988 21.6 5.4 21.1988 5.4 20.7 V 20.4 Z" fill="var(--fill-0, black)"/>
</svg>
