<svg viewBox="0 0 24 24" fill="none" xmlns="http://www.w3.org/2000/svg">
  <svg x="3.6" y="2.4" width="16.8" height="19.2" viewBox="3.6 2.4 16.8 19.2">
    <path d="M16.8 7.2C16.8 4.54875 14.6512 2.4 12 2.4C9.34875 2.4 7.2 4.54875 7.2 7.2C7.2 9.85125 9.34875 12 12 12C14.6512 12 16.8 9.85125 16.8 7.2 Z M 9 7.2C9 5.5425 10.3425 4.2 12 4.2C13.6575 4.2 15 5.5425 15 7.2C15 8.8575 13.6575 10.2 12 10.2C10.3425 10.2 9 8.8575 9 7.2  Z" fill-rule="evenodd" fill="var(--fill-0, black)"/>
    <path d="M5.4 20.4C5.4 17.7488 7.54875 15.6 10.2 15.6H13.8C16.4512 15.6 18.6 17.7488 18.6 20.4V20.7C18.6 21.1988 19.0012 21.6 19.5 21.6C19.9987 21.6 20.4 21.1988 20.4 20.7V20.4C20.4 16.755 17.445 13.8 13.8 13.8H10.2C6.555 13.8 3.6 16.755 3.6 20.4V20.7C3.6 21.1988 4.00125 21.6 4.5 21.6C4.99875 21.6 5.4 21.1988 5.4 20.7V20.4Z" fill="var(--fill-0, black)"/>
  </svg>
</svg>
