<svg viewBox="0 0 24 24" fill="none" xmlns="http://www.w3.org/2000/svg">
  <path d="M 19.655 3.6807 C 18.877 2.9027 17.6196 2.9027 16.8416 3.6807 L 15.9749 4.5474 L 19.4525 8.025 L 20.3192 7.1583 C 21.0972 6.3803 21.0972 5.1229 20.3192 4.3449 L 19.655 3.6807 Z" fill="var(--fill-0, black)"/>
  <path d="M 6.3128 5.1832 C 4.4302 5.1832 2.9027 6.7107 2.9027 8.5934 V 17.6871 C 2.9027 19.5697 4.4302 21.0972 6.3128 21.0972 H 15.4065 C 17.2892 21.0972 18.8167 19.5697 18.8167 17.6871 V 14.2769 C 18.8167 13.6482 18.3087 13.1402 17.6799 13.1402 C 17.0512 13.1402 16.5432 13.6482 16.5432 14.2769 V 17.6871 C 16.5432 18.3158 16.0353 18.8238 15.4065 18.8238 H 6.3128 C 5.6841 18.8238 5.1761 18.3158 5.1761 17.6871 V 8.5934 C 5.1761 7.9646 5.6841 7.4567 6.3128 7.4567 H 9.723 C 10.3517 7.4567 10.8597 6.9487 10.8597 6.32 C 10.8597 5.6912 10.3517 5.1832 9.723 5.1832 H 6.3128 Z M 9.0267 11.4955 C 8.8101 11.7122 8.6431 11.9786 8.5472 12.2735 L 7.4957 15.4279 C 7.3927 15.7333 7.4744 16.0708 7.7018 16.3017 C 7.9291 16.5326 8.2666 16.6107 8.5756 16.5077 L 11.73 15.4563 C 12.0213 15.3604 12.2877 15.1934 12.5079 14.9767 L 18.2483 9.2292 L 14.7707 5.7516 L 9.0267 11.4955 Z" fill-rule="evenodd" fill="var(--fill-0, black)"/>
</svg>
