<svg viewBox="0 0 24 24" fill="none" xmlns="http://www.w3.org/2000/svg">
  <path d="M 15.6 7.8 C 15.6 9.5213 15.0413 11.1112 14.1 12.4012 L 18.8475 17.1525 C 19.3162 17.6212 19.3162 18.3825 18.8475 18.8512 C 18.3787 19.32 17.6175 19.32 17.1488 18.8512 L 12.4013 14.1 C 11.1113 15.0412 9.5213 15.6 7.8 15.6 C 3.4913 15.6 0 12.1087 0 7.8 C 0 3.4913 3.4913 0 7.8 0 C 12.1088 0 15.6 3.4913 15.6 7.8 Z M 7.8 13.2 C 10.7813 13.2 13.2 10.7812 13.2 7.8 C 13.2 4.8188 10.7813 2.4 7.8 2.4 C 4.8188 2.4 2.4 4.8188 2.4 7.8 C 2.4 10.7812 4.8188 13.2 7.8 13.2 Z" fill-rule="evenodd" fill="var(--fill-0, black)"/>
</svg>
