<svg viewBox="0 0 24 24" fill="none" xmlns="http://www.w3.org/2000/svg">
  <path d="M 3.6 4.8 C 2.9362 4.8 2.4 5.3363 2.4 6 C 2.4 6.6638 2.9362 7.2 3.6 7.2 H 6.8513 C 7.3125 8.2613 8.37 9 9.6 9 C 10.83 9 11.8875 8.2613 12.3488 7.2 H 20.4 C 21.0638 7.2 21.6 6.6638 21.6 6 C 21.6 5.3363 21.0638 4.8 20.4 4.8 H 12.3488 C 11.8875 3.7388 10.83 3 9.6 3 C 8.37 3 7.3125 3.7388 6.8513 4.8 H 3.6 Z" fill="var(--fill-0, black)"/>
  <path d="M 3.6 16.8 C 2.9362 16.8 2.4 17.3363 2.4 18 C 2.4 18.6638 2.9362 19.2 3.6 19.2 H 5.6513 C 6.1125 20.2613 7.17 21 8.4 21 C 9.63 21 10.6875 20.2613 11.1488 19.2 H 20.4 C 21.0638 19.2 21.6 18.6638 21.6 18 C 21.6 17.3363 21.0638 16.8 20.4 16.8 H 11.1488 C 10.6875 15.7388 9.63 15 8.4 15 C 7.17 15 6.1125 15.7388 5.6513 16.8 H 3.6 Z" fill="var(--fill-0, black)"/>
  <path d="M 3.6 10.8 C 2.9362 10.8 2.4 11.3363 2.4 12 C 2.4 12.6638 2.9362 13.2 3.6 13.2 H 12.8513 C 13.3125 14.2613 14.37 15 15.6 15 C 16.83 15 17.8875 14.2613 18.3488 13.2 H 20.4 C 21.0638 13.2 21.6 12.6638 21.6 12 C 21.6 11.3363 21.0638 10.8 20.4 10.8 H 18.3488 C 17.8875 9.7388 16.83 9 15.6 9 C 14.37 9 13.3125 9.7388 12.8513 10.8 H 3.6 Z" fill="var(--fill-0, black)"/>
</svg>
