<svg viewBox="0 0 24 24" fill="none" xmlns="http://www.w3.org/2000/svg">
  <svg x="2.4" y="3.6" width="19.2" height="16.8" viewBox="0 1.2 19.2 16.8">
    <path d="M1.2 1.8C0.53625 1.8 0 2.33625 0 3C0 3.66375 0.53625 4.2 1.2 4.2H4.45125C4.9125 5.26125 5.97 6 7.2 6C8.43 6 9.4875 5.26125 9.94875 4.2H18C18.6638 4.2 19.2 3.66375 19.2 3C19.2 2.33625 18.6638 1.8 18 1.8H9.94875C9.4875 0.73875 8.43 0 7.2 0C5.97 0 4.9125 0.73875 4.45125 1.8H1.2Z" fill="var(--fill-0, black)"/>
    <path d="M1.2 13.8C0.53625 13.8 0 14.3363 0 15C0 15.6638 0.53625 16.2 1.2 16.2H3.25125C3.7125 17.2613 4.77 18 6 18C7.23 18 8.2875 17.2613 8.74875 16.2H18C18.6638 16.2 19.2 15.6638 19.2 15C19.2 14.3363 18.6638 13.8 18 13.8H8.74875C8.2875 12.7388 7.23 12 6 12C4.77 12 3.7125 12.7388 3.25125 13.8H1.2Z" fill="var(--fill-0, black)"/>
    <path d="M1.2 7.8C0.53625 7.8 0 8.33625 0 9C0 9.66375 0.53625 10.2 1.2 10.2H10.4513C10.9125 11.2613 11.97 12 13.2 12C14.43 12 15.4875 11.2613 15.9488 10.2H18C18.6638 10.2 19.2 9.66375 19.2 9C19.2 8.33625 18.6638 7.8 18 7.8H15.9488C15.4875 6.73875 14.43 6 13.2 6C11.97 6 10.9125 6.73875 10.4513 7.8H1.2Z" fill="var(--fill-0, black)"/>
  </svg>
</svg>
