<svg viewBox="0 0 24 24" fill="none" xmlns="http://www.w3.org/2000/svg">
  <path d="M 10.2 0 C 10.8637 0 11.4 0.5363 11.4 1.2 V 1.8863 C 15.0787 2.4113 17.9887 5.3213 18.5137 9 H 19.2 C 19.8637 9 20.4 9.5363 20.4 10.2 C 20.4 10.8637 19.8637 11.4 19.2 11.4 H 18.5137 C 17.9887 15.0787 15.0787 17.9887 11.4 18.5137 V 19.2 C 11.4 19.8637 10.8637 20.4 10.2 20.4 C 9.5363 20.4 9 19.8637 9 19.2 V 18.5137 C 5.3213 17.9887 2.4113 15.0787 1.8863 11.4 H 1.2 C 0.5363 11.4 0 10.8637 0 10.2 C 0 9.5363 0.5363 9 1.2 9 H 1.8863 C 2.4113 5.3213 5.3213 2.4113 9 1.8863 V 1.2 C 9 0.5363 9.5363 0 10.2 0 Z M 4.32 11.4 C 4.7963 13.7512 6.6488 15.6037 9 16.08 V 15.6 C 9 14.9362 9.5363 14.4 10.2 14.4 C 10.8637 14.4 11.4 14.9362 11.4 15.6 V 16.08 C 13.7512 15.6037 15.6037 13.7512 16.08 11.4 H 15.6 C 14.9362 11.4 14.4 10.8637 14.4 10.2 C 14.4 9.5363 14.9362 9 15.6 9 H 16.08 C 15.6037 6.6488 13.7512 4.7963 11.4 4.32 V 4.8 C 11.4 5.4638 10.8637 6 10.2 6 C 9.5363 6 9 5.4638 9 4.8 V 4.32 C 6.6488 4.7963 4.7963 6.6488 4.32 9 H 4.8 C 5.4638 9 6 9.5363 6 10.2 C 6 10.8637 5.4638 11.4 4.8 11.4 H 4.32 Z M 10.2 8.4 C 11.1937 8.4 12 9.2063 12 10.2 C 12 11.1937 11.1937 12 10.2 12 C 9.2063 12 8.4 11.1937 8.4 10.2 C 8.4 9.2063 9.2063 8.4 10.2 8.4 Z" fill-rule="evenodd" fill="var(--fill-0, black)"/>
</svg>
