<svg viewBox="0 0 24 24" fill="none" xmlns="http://www.w3.org/2000/svg">
  <path d="M 0 9.6 C 0 4.2975 4.2975 0 9.6 0 C 14.9025 0 19.2 4.2975 19.2 9.6 C 19.2 14.9025 14.9025 19.2 9.6 19.2 C 4.2975 19.2 0 14.9025 0 9.6 Z M 16.8 9.6 C 16.8 5.625 13.575 2.4 9.6 2.4 C 5.625 2.4 2.4 5.625 2.4 9.6 C 2.4 13.575 5.625 16.8 9.6 16.8 C 13.575 16.8 16.8 13.575 16.8 9.6 Z M 9.6 4.2 C 12.5813 4.2 15 6.6188 15 9.6 C 15 12.5813 12.5813 15 9.6 15 C 6.6188 15 4.2 12.5813 4.2 9.6 C 4.2 6.6188 6.6188 4.2 9.6 4.2 Z M 9.6 12.6 C 11.2575 12.6 12.6 11.2575 12.6 9.6 C 12.6 7.9425 11.2575 6.6 9.6 6.6 C 7.9425 6.6 6.6 7.9425 6.6 9.6 C 6.6 11.2575 7.9425 12.6 9.6 12.6 Z M 8.4 9.6 C 8.4 8.9363 8.9363 8.4 9.6 8.4 C 10.2638 8.4 10.8 8.9363 10.8 9.6 C 10.8 10.2638 10.2638 10.8 9.6 10.8 C 8.9363 10.8 8.4 10.2638 8.4 9.6 Z" fill-rule="evenodd" fill="var(--fill-0, black)"/>
</svg>
