<svg viewBox="0 0 24 24" fill="none" xmlns="http://www.w3.org/2000/svg">
  <svg x="2.4" y="2.4" width="19.2" height="19.2" viewBox="0 0 19.2 19.2">
    <path d="M9.6 19.2C4.2975 19.2 0 14.9025 0 9.6C0 4.2975 4.2975 0 9.6 0C14.9025 0 19.2 4.2975 19.2 9.6C19.2 14.9025 14.9025 19.2 9.6 19.2 Z M 9.6 1.8C5.29125 1.8 1.8 5.29125 1.8 9.6C1.8 13.9088 5.29125 17.4 9.6 17.4C13.9088 17.4 17.4 13.9088 17.4 9.6C17.4 5.29125 13.9088 1.8 9.6 1.8 Z M 9.6 13.2C7.6125 13.2 6 11.5875 6 9.6C6 7.6125 7.6125 6 9.6 6C11.5875 6 13.2 7.6125 13.2 9.6C13.2 11.5875 11.5875 13.2 9.6 13.2  Z" fill-rule="evenodd" fill="var(--fill-0, black)"/>
  </svg>
</svg>
