<svg viewBox="0 0 24 24" fill="none" xmlns="http://www.w3.org/2000/svg">
  <path d="M 10.2 0 C 10.8637 0 11.4 0.5363 11.4 1.2 V 1.8863 C 15.0787 2.4113 17.9887 5.3213 18.5137 9 H 19.2 C 19.8637 9 20.4 9.5363 20.4 10.2 C 20.4 10.8637 19.8637 11.4 19.2 11.4 H 18.5137 C 17.9887 15.0787 15.0787 17.9887 11.4 18.5137 V 19.2 C 11.4 19.8637 10.8637 20.4 10.2 20.4 C 9.5363 20.4 9 19.8637 9 19.2 V 18.5137 C 5.3213 17.9887 2.4113 15.0787 1.8863 11.4 H 1.2 C 0.5363 11.4 0 10.8637 0 10.2 C 0 9.5363 0.5363 9 1.2 9 H 1.8863 C 2.4113 5.3213 5.3213 2.4113 9 1.8863 V 1.2 C 9 0.5363 9.5363 0 10.2 0 Z M 4.2 10.2 C 4.2 13.515 6.885 16.2 10.2 16.2 C 13.515 16.2 16.2 13.515 16.2 10.2 C 16.2 6.885 13.515 4.2 10.2 4.2 C 6.885 4.2 4.2 6.885 4.2 10.2 Z M 10.2 6.6 C 12.1875 6.6 13.8 8.2125 13.8 10.2 C 13.8 12.1875 12.1875 13.8 10.2 13.8 C 8.2125 13.8 6.6 12.1875 6.6 10.2 C 6.6 8.2125 8.2125 6.6 10.2 6.6 Z" fill-rule="evenodd" fill="var(--fill-0, black)"/>
</svg>
