<svg viewBox="0 0 24 24" fill="none" xmlns="http://www.w3.org/2000/svg">
  <svg x="1.8" y="1.8" width="20.4" height="20.4" viewBox="0 0 20.4 20.4">
    <path d="M10.2 0C10.8637 0 11.4 0.53625 11.4 1.2V1.88625C15.0787 2.41125 17.9887 5.32125 18.5137 9H19.2C19.8637 9 20.4 9.53625 20.4 10.2C20.4 10.8637 19.8637 11.4 19.2 11.4H18.5137C17.9887 15.0787 15.0787 17.9887 11.4 18.5137V19.2C11.4 19.8637 10.8637 20.4 10.2 20.4C9.53625 20.4 9 19.8637 9 19.2V18.5137C5.32125 17.9887 2.41125 15.0787 1.88625 11.4H1.2C0.53625 11.4 0 10.8637 0 10.2C0 9.53625 0.53625 9 1.2 9H1.88625C2.41125 5.32125 5.32125 2.41125 9 1.88625V1.2C9 0.53625 9.53625 0 10.2 0 Z M 4.32 11.4C4.79625 13.7512 6.64875 15.6037 9 16.08V15.6C9 14.9362 9.53625 14.4 10.2 14.4C10.8637 14.4 11.4 14.9362 11.4 15.6V16.08C13.7512 15.6037 15.6037 13.7512 16.08 11.4H15.6C14.9362 11.4 14.4 10.8637 14.4 10.2C14.4 9.53625 14.9362 9 15.6 9H16.08C15.6037 6.64875 13.7512 4.79625 11.4 4.32V4.8C11.4 5.46375 10.8637 6 10.2 6C9.53625 6 9 5.46375 9 4.8V4.32C6.64875 4.79625 4.79625 6.64875 4.32 9H4.8C5.46375 9 6 9.53625 6 10.2C6 10.8637 5.46375 11.4 4.8 11.4H4.32 Z M 10.2 8.4C11.1937 8.4 12 9.20625 12 10.2C12 11.1937 11.1937 12 10.2 12C9.20625 12 8.4 11.1937 8.4 10.2C8.4 9.20625 9.20625 8.4 10.2 8.4  Z" fill-rule="evenodd" fill="var(--fill-0, black)"/>
  </svg>
</svg>
