<svg viewBox="0 0 24 24" fill="none" xmlns="http://www.w3.org/2000/svg">
  <path d="M 9.6 19.2 C 4.2975 19.2 0 14.9025 0 9.6 C 0 4.2975 4.2975 0 9.6 0 C 14.9025 0 19.2 4.2975 19.2 9.6 C 19.2 14.9025 14.9025 19.2 9.6 19.2 Z M 9.6 1.8 C 5.2913 1.8 1.8 5.2913 1.8 9.6 C 1.8 13.9088 5.2913 17.4 9.6 17.4 C 13.9088 17.4 17.4 13.9088 17.4 9.6 C 17.4 5.2913 13.9088 1.8 9.6 1.8 Z M 9.6 13.2 C 7.6125 13.2 6 11.5875 6 9.6 C 6 7.6125 7.6125 6 9.6 6 C 11.5875 6 13.2 7.6125 13.2 9.6 C 13.2 11.5875 11.5875 13.2 9.6 13.2 Z" fill-rule="evenodd" fill="var(--fill-0, black)"/>
</svg>
