<svg viewBox="0 0 24 24" fill="none" xmlns="http://www.w3.org/2000/svg">
  <svg x="2.4" y="2.4" width="19.2" height="19.2" viewBox="0 0 19.2 19.2">
    <path d="M0 9.6C0 4.2975 4.2975 0 9.6 0C14.9025 0 19.2 4.2975 19.2 9.6C19.2 14.9025 14.9025 19.2 9.6 19.2C4.2975 19.2 0 14.9025 0 9.6 Z M 16.8 9.6C16.8 5.625 13.575 2.4 9.6 2.4C5.625 2.4 2.4 5.625 2.4 9.6C2.4 13.575 5.625 16.8 9.6 16.8C13.575 16.8 16.8 13.575 16.8 9.6 Z M 9.6 4.2C12.5813 4.2 15 6.61875 15 9.6C15 12.5813 12.5813 15 9.6 15C6.61875 15 4.2 12.5813 4.2 9.6C4.2 6.61875 6.61875 4.2 9.6 4.2 Z M 9.6 12.6C11.2575 12.6 12.6 11.2575 12.6 9.6C12.6 7.9425 11.2575 6.6 9.6 6.6C7.9425 6.6 6.6 7.9425 6.6 9.6C6.6 11.2575 7.9425 12.6 9.6 12.6 Z M 8.4 9.6C8.4 8.93625 8.93625 8.4 9.6 8.4C10.2638 8.4 10.8 8.93625 10.8 9.6C10.8 10.2638 10.2638 10.8 9.6 10.8C8.93625 10.8 8.4 10.2638 8.4 9.6  Z" fill-rule="evenodd" fill="var(--fill-0, black)"/>
  </svg>
</svg>
