<svg viewBox="0 0 24 24" fill="none" xmlns="http://www.w3.org/2000/svg">
  <svg x="1.8" y="1.8" width="20.4" height="20.4" viewBox="0 0 20.4 20.4">
    <path d="M10.2 0C10.8637 0 11.4 0.53625 11.4 1.2V1.88625C15.0787 2.41125 17.9887 5.32125 18.5137 9H19.2C19.8637 9 20.4 9.53625 20.4 10.2C20.4 10.8637 19.8637 11.4 19.2 11.4H18.5137C17.9887 15.0787 15.0787 17.9887 11.4 18.5137V19.2C11.4 19.8637 10.8637 20.4 10.2 20.4C9.53625 20.4 9 19.8637 9 19.2V18.5137C5.32125 17.9887 2.41125 15.0787 1.88625 11.4H1.2C0.53625 11.4 0 10.8637 0 10.2C0 9.53625 0.53625 9 1.2 9H1.88625C2.41125 5.32125 5.32125 2.41125 9 1.88625V1.2C9 0.53625 9.53625 0 10.2 0 Z M 4.2 10.2C4.2 13.515 6.885 16.2 10.2 16.2C13.515 16.2 16.2 13.515 16.2 10.2C16.2 6.885 13.515 4.2 10.2 4.2C6.885 4.2 4.2 6.885 4.2 10.2 Z M 10.2 6.6C12.1875 6.6 13.8 8.2125 13.8 10.2C13.8 12.1875 12.1875 13.8 10.2 13.8C8.2125 13.8 6.6 12.1875 6.6 10.2C6.6 8.2125 8.2125 6.6 10.2 6.6  Z" fill-rule="evenodd" fill="var(--fill-0, black)"/>
  </svg>
</svg>
