<svg viewBox="0 0 24 24" fill="none" xmlns="http://www.w3.org/2000/svg">
  <svg x="2.4" y="2.3737" width="19.2" height="19.2525" viewBox="0 0 19.2 19.2525">
    <path d="M7.63875 18.0337L6.22125 19.035C5.9475 19.23 5.5875 19.2525 5.2875 19.0987C4.9875 18.945 4.8 18.6375 4.8 18.3V15.6H3.6C1.6125 15.6 0 13.9875 0 12V3.6C0 1.6125 1.6125 0 3.6 0H15.6C17.5875 0 19.2 1.6125 19.2 3.6V12C19.2 13.9875 17.5875 15.6 15.6 15.6H11.085L7.63875 18.0337 Z M 10.05 14.13C10.3538 13.9162 10.7175 13.8 11.0888 13.8H15.6C16.5938 13.8 17.4 12.9937 17.4 12V3.6C17.4 2.60625 16.5938 1.8 15.6 1.8H3.6C2.60625 1.8 1.8 2.60625 1.8 3.6V12C1.8 12.9937 2.60625 13.8 3.6 13.8H5.7C6.09 13.8 6.42375 14.0475 6.5475 14.3962C6.58125 14.49 6.6 14.5912 6.6 14.7V16.5637C7.82625 15.6975 8.97375 14.8875 10.0463 14.13H10.05  Z" fill-rule="evenodd" fill="var(--fill-0, black)"/>
  </svg>
</svg>
