<svg viewBox="0 0 24 24" fill="none" xmlns="http://www.w3.org/2000/svg">
  <path d="M 7.6388 18.0337 L 6.2213 19.035 C 5.9475 19.23 5.5875 19.2525 5.2875 19.0987 C 4.9875 18.945 4.8 18.6375 4.8 18.3 V 15.6 H 3.6 C 1.6125 15.6 0 13.9875 0 12 V 3.6 C 0 1.6125 1.6125 0 3.6 0 H 15.6 C 17.5875 0 19.2 1.6125 19.2 3.6 V 12 C 19.2 13.9875 17.5875 15.6 15.6 15.6 H 11.085 L 7.6388 18.0337 Z M 10.05 14.13 C 10.3538 13.9162 10.7175 13.8 11.0888 13.8 H 15.6 C 16.5938 13.8 17.4 12.9937 17.4 12 V 3.6 C 17.4 2.6063 16.5938 1.8 15.6 1.8 H 3.6 C 2.6063 1.8 1.8 2.6063 1.8 3.6 V 12 C 1.8 12.9937 2.6063 13.8 3.6 13.8 H 5.7 C 6.09 13.8 6.4238 14.0475 6.5475 14.3962 C 6.5813 14.49 6.6 14.5912 6.6 14.7 V 16.5637 C 7.8263 15.6975 8.9738 14.8875 10.0463 14.13 H 10.05 Z" fill-rule="evenodd" fill="var(--fill-0, black)"/>
</svg>
